<?xml version="1.0" encoding="utf-8"?>
<!-- Generator: Adobe Illustrator 23.0.3, SVG Export Plug-In . SVG Version: 6.00 Build 0)  -->
<svg version="1.1" id="Layer_1" xmlns="http://www.w3.org/2000/svg" xmlns:xlink="http://www.w3.org/1999/xlink" x="0px" y="0px"
	 viewBox="0 0 640 480" style="enable-background:new 0 0 640 480;" xml:space="preserve">
<style type="text/css">
	.st0{fill:#5333FF;}
</style>
<title>food-truck-light</title>
<path class="st0" d="M632,352h-24V243.9c0-17-6.8-33.2-18.8-45.2l-83.9-83.9c-12-12-28.2-18.8-45.2-18.8H416V46.6
	C416,20.9,393.8,0,366.6,0H49.4C22.2,0,0,20.9,0,46.6v290.8C0,363.1,22.2,384,49.4,384h16.2c-1.1,5.3-1.6,10.6-1.6,16
	c0,44.2,35.8,80,80,80s80-35.8,80-80c0-5.4-0.6-10.7-1.6-16h195.2c-1.1,5.3-1.6,10.6-1.6,16c0,44.2,35.8,80,80,80s80-35.8,80-80
	c0-5.4-0.6-10.7-1.6-16H632c4.4,0,8-3.6,8-8v-16C640,355.6,636.4,352,632,352z M460.1,128c8.5,0,16.6,3.4,22.6,9.4l83.9,83.9
	c0.7,0.9,1.3,1.8,1.8,2.8H416v-96L460.1,128L460.1,128z M144,448c-26.5,0-48-21.5-48-48s21.5-48,48-48s48,21.5,48,48
	S170.5,448,144,448z M207.6,352c-26.1-35.1-75.7-42.5-110.8-16.4c-6.2,4.6-11.8,10.2-16.4,16.4h-31c-9.6,0-17.4-6.5-17.4-14.6V46.6
	C32,38.5,39.8,32,49.4,32h317.2c9.6,0,17.4,6.5,17.4,14.6V352H207.6z M496,448c-26.5,0-48-21.5-48-48s21.5-48,48-48
	c26.5,0,48,21.5,48,48S522.5,448,496,448z M496,320c-25.1,0.1-48.6,11.9-63.6,32H416v-96h160v96h-16.4
	C544.6,331.9,521.1,320.1,496,320z"/>
<path class="st0" d="M315.7,220.3c0-5-2.1-9.8-5.9-13.1c6.9-6.4,7.9-17,2.3-24.6c-11.1-15.6-33.7-25.8-57.5-25.8
	s-46.4,10.2-57.5,25.8c-5.5,7.6-4.5,18.2,2.3,24.6c-7.2,6.4-7.9,17.4-1.5,24.6c-2.8,2.6-4.3,6.3-4.4,10.1c0,11.9,9.7,21.6,21.6,21.6
	h78.8c11.9,0,21.6-9.7,21.6-21.6c0-3.8-1.6-7.5-4.4-10.1C314.1,228.6,315.7,224.5,315.7,220.3z M205.4,188.4
	c8.5-12,27.3-21.5,49.2-21.5s40.7,9.5,49.2,21.5c2.8,4,1.9,9.6-2.1,12.4c-1.5,1.1-3.4,1.7-5.2,1.6h-83.7c-4.9,0.1-9-3.9-9-8.8
	C203.8,191.8,204.4,189.9,205.4,188.4z M294.1,253.4h-78.8c-6.3,0-11.4-5.1-11.4-11.5c0-2.1,1.7-3.8,3.8-3.8h94.1
	c2.1,0,3.8,1.7,3.8,3.8l0,0C305.5,248.2,300.4,253.4,294.1,253.4L294.1,253.4z M297.9,227.9h-86.5c-4.2,0-7.6-3.4-7.6-7.6
	s3.4-7.6,7.6-7.6c0,0,0,0,0,0h86.5c4.2,0,7.6,3.4,7.6,7.6C305.5,224.5,302.1,227.9,297.9,227.9C297.9,227.9,297.9,227.9,297.9,227.9
	z M254.7,187.2c2.8,0,5.1-2.3,5.1-5.1c0-2.8-2.3-5.1-5.1-5.1c-2.8,0-5.1,2.3-5.1,5.1c0,0,0,0,0,0
	C249.6,184.9,251.8,187.2,254.7,187.2C254.7,187.2,254.7,187.2,254.7,187.2L254.7,187.2z M280.1,192.3c2.8,0,5.1-2.3,5.1-5.1
	c0-2.8-2.3-5.1-5.1-5.1c-2.8,0-5.1,2.3-5.1,5.1c0,0,0,0,0,0C275,190,277.3,192.3,280.1,192.3L280.1,192.3z M229.2,192.3
	c2.8,0,5.1-2.3,5.1-5.1c0-2.8-2.3-5.1-5.1-5.1c-2.8,0-5.1,2.3-5.1,5.1c0,0,0,0,0,0C224.1,190,226.4,192.3,229.2,192.3
	C229.2,192.3,229.2,192.3,229.2,192.3L229.2,192.3z M142.7,253.1l-10.2-101.5h89c1.4,0,2.5-1.1,2.5-2.6V144c0-1.4-1.1-2.5-2.5-2.6
	h-41.8l7.6-30.5h13.8c1.4,0,2.5-1.1,2.5-2.5c0,0,0,0,0,0v-5.1c0-1.4-1.1-2.5-2.6-2.5h-13.8c-4.7,0-8.7,3.2-9.9,7.7l-8.2,33h-54.5
	c-1.4,0-2.5,1.1-2.5,2.6v5.1c0,1.4,1.1,2.5,2.5,2.6h7.6v0.5l10.2,101.9c0.4,5.3,4.8,9.5,10.2,9.4h49.3c-2.8-3-5-6.4-6.4-10.2
	L142.7,253.1z"/>
</svg>
