<svg id="Layer_1" data-name="Layer 1" xmlns="http://www.w3.org/2000/svg" viewBox="0 0 640 480"><title>food-truck-light</title><path d="M632,384H608V275.9a64.06,64.06,0,0,0-18.8-45.2l-83.9-83.9A63.71,63.71,0,0,0,460.1,128H416V78.6C416,52.9,393.8,32,366.6,32H49.4C22.2,32,0,52.9,0,78.6V369.4C0,395.1,22.2,416,49.4,416H65.6A76.86,76.86,0,0,0,64,432a80,80,0,0,0,160,0,84.28,84.28,0,0,0-1.6-16H417.6a76.86,76.86,0,0,0-1.6,16,80,80,0,0,0,160,0,84.28,84.28,0,0,0-1.6-16H632a8,8,0,0,0,8-8V392A8,8,0,0,0,632,384ZM460.1,160a31.94,31.94,0,0,1,22.6,9.4l83.9,83.9a26.75,26.75,0,0,1,1.8,2.8H416v-96h44.1ZM144,480a48,48,0,1,1,48-48A48,48,0,0,1,144,480Zm63.6-96a79.2,79.2,0,0,0-127.2,0h-31c-9.6,0-17.4-6.5-17.4-14.6V78.6C32,70.5,39.8,64,49.4,64H366.6c9.6,0,17.4,6.5,17.4,14.6V384ZM496,480a48,48,0,1,1,48-48A48,48,0,0,1,496,480Zm0-128a79.58,79.58,0,0,0-63.6,32H416V288H576v96H559.6A79.58,79.58,0,0,0,496,352Z" transform="translate(0 -32)"/><path d="M315.7,252.29a17.65,17.65,0,0,0-5.87-13.12,18.7,18.7,0,0,0,2.34-24.64c-11.09-15.65-33.67-25.81-57.51-25.83s-46.41,10.18-57.5,25.83a18.7,18.7,0,0,0,2.34,24.64A17.52,17.52,0,0,0,198,263.81a13.94,13.94,0,0,0-4.36,10.09,21.65,21.65,0,0,0,21.62,21.62h78.84A21.63,21.63,0,0,0,315.7,273.9a13.93,13.93,0,0,0-4.35-10.09A17.62,17.62,0,0,0,315.7,252.29ZM205.45,220.41c8.52-12,27.28-21.51,49.21-21.53s40.69,9.49,49.21,21.53a8.92,8.92,0,0,1-7.38,14.07H212.83A8.92,8.92,0,0,1,205.45,220.41Zm88.63,64.94H215.24A11.45,11.45,0,0,1,203.8,273.9a3.81,3.81,0,0,1,3.81-3.81h94.1a3.82,3.82,0,0,1,3.82,3.81h0A11.45,11.45,0,0,1,294.08,285.35Zm3.82-25.43H211.43a7.63,7.63,0,1,1,0-15.26H297.9a7.63,7.63,0,1,1,0,15.26Zm-43.24-40.7a5.09,5.09,0,1,0-5.09-5.08A5.08,5.08,0,0,0,254.66,219.22Zm25.43,5.09a5.09,5.09,0,1,0-5.08-5.09A5.09,5.09,0,0,0,280.09,224.31Zm-50.86,0a5.09,5.09,0,1,0-5.09-5.09A5.08,5.08,0,0,0,229.23,224.31Zm-86.51,60.76L132.55,183.62h89a2.55,2.55,0,0,0,2.54-2.55V176a2.55,2.55,0,0,0-2.54-2.55H179.79l7.63-30.52h13.83a2.54,2.54,0,0,0,2.55-2.54v-5.09a2.55,2.55,0,0,0-2.55-2.54H187.42a10.17,10.17,0,0,0-9.87,7.71l-8.25,33H114.78a2.55,2.55,0,0,0-2.54,2.55v5.08a2.55,2.55,0,0,0,2.54,2.55h7.63v.53l10.17,101.93a10.14,10.14,0,0,0,10.18,9.44h49.31a31.77,31.77,0,0,1-6.42-10.22Z" transform="translate(0 -32)"/></svg>